<?xml version="1.0" encoding="UTF-8"?>
<svg width="378px" height="111px" viewBox="0 0 378 111" version="1.1" xmlns="http://www.w3.org/2000/svg" xmlns:xlink="http://www.w3.org/1999/xlink">
    <!-- Generator: Sketch 51.3 (57544) - http://www.bohemiancoding.com/sketch -->
    <title>Acticate Conference</title>
    <desc>A conference for all things interactive. Coming again soon in 2019!</desc>
    <g id="Page-1" stroke="none" stroke-width="1" fill="none" fill-rule="evenodd">
        <g id="1024" transform="translate(-42.000000, -8.000000)">
            <g id="logo/logo-full-white-text" transform="translate(42.000000, 8.000000)">
                <g id="logo/logo-mark" transform="translate(291.666667, 0.000000)">
                    <polygon id="Fill-1" fill="#E83644" points="68.1067736 2.73641975 66.8864215 4.90241286 64.7974522 3.67491986 63.5910072 5.81183923 65.6869301 7.04630994 65.7008372 7.0172362 67.8176208 8.26624378 70.2235572 3.98542732"></polygon>
                    <polygon id="Fill-2" fill="#2EBEC1" points="29.821558 65.8561338 31.9099478 67.0906626 33.1308794 64.9176337 31.0424896 63.6903151"></polygon>
                    <polygon id="Fill-3" fill="#2EBEC1" points="32.5595275 56.0376434 31.3530825 58.1818312 33.4484259 59.4091498 34.6479173 57.2721723"></polygon>
                    <polygon id="Fill-4" fill="#2EBEC1" points="33.4484259 59.4091498 32.241981 61.5533376 34.3303708 62.7806562 35.5368158 60.6436786"></polygon>
                    <polygon id="Fill-5" fill="#2EBEC1" points="28.9465667 62.4557863 30.1535911 60.3188087 28.0576682 59.0842799 37.7028539 41.9452561 35.5860702 40.6962486 38.0064932 36.3863584 35.9181034 35.1588654 41.9509077 24.4306579 39.8549848 23.2037463 22.9635963 53.2365055 25.0519862 54.4710344 21.4251182 60.9180184 23.5210411 62.1453369 21.1145253 66.4265023 23.2313089 67.6754517 20.8114654 71.9782479 27.0772144 75.6746242 29.5040115 71.3646177 27.4156216 70.1372991 29.821558 65.8561338 27.7262146 64.6288152"></polygon>
                    <polygon id="Fill-6" fill="#B72133" points="23.5210411 62.1453369 21.4251182 60.9180184 19.0191819 65.1919734 21.1145253 66.4265023"></polygon>
                    <polygon id="Fill-7" fill="#B72133" points="21.1145253 66.4265023 18.6877282 70.7365088 20.8114654 71.9782479 23.2313089 67.6754517"></polygon>
                    <polygon id="Fill-8" fill="#B72133" points="25.3695327 48.9624923 36.2356499 29.6505559 34.139727 28.4160852 20.874627 52.0094195 22.9635963 53.2365055"></polygon>
                    <polygon id="Fill-9" fill="#B72133" points="23.8524948 56.6080119 25.0519862 54.4710344 22.9635963 53.2365055 19.3367284 59.6834895 21.4251182 60.9180184"></polygon>
                    <polygon id="Fill-10" fill="#DB232A" points="18.6877282 70.7365088 21.1145253 66.4265023 19.0191819 65.1919734 21.4251182 60.9180184 19.3367284 59.6834895 22.9635963 53.2365055 20.874627 52.0094195 30.5273457 34.833821 28.4389558 33.6069095 24.8120879 40.0537191 22.6953043 38.8047115 17.8619914 47.3890219 15.7736015 46.1615289 10.9472422 54.7453741 8.85131934 53.5108453 0.412578682 68.5201599 2.50850156 69.7474785 0.0811250217 74.057485 2.17646844 75.2848036 0.970023474 77.4289914 5.18272996 79.9052594 6.38222135 77.7682818 8.4706112 78.9956004 9.69096331 76.8297817 11.7868862 78.0570422 14.1928226 73.7831452 16.2812124 75.0104638 17.4882368 72.8734863 19.6050204 74.1224357 20.8114654 71.9782479"></polygon>
                    <polygon id="Fill-11" fill="#F47721" points="20.1126313 102.978697 18.0242414 101.744168 19.2237328 99.6071908 21.3121227 100.834509"></polygon>
                    <polygon id="Fill-12" fill="#DB232A" points="26.4774687 86.7132228 24.3884994 85.478694 25.5879908 83.3417165 27.6839137 84.569035"></polygon>
                    <polygon id="Fill-13" fill="#DB232A" points="76.4962598 7.67430257 80.1231277 1.2344707 78.0347379 -2.84217094e-14 76.8277134 2.13691938 74.7393236 0.910007844 73.5398322 3.04692722 71.4444888 1.81943421 67.8176208 8.26624378 76.1856668 13.1901712 78.5921827 8.90877328"></polygon>
                    <polygon id="Fill-14" fill="#B72133" points="83.6723474 14.7857377 84.8926995 12.6197446 82.7973561 11.3852739 84.0177082 9.21928074 81.9009246 7.97027317 83.100416 5.8333538 81.0120262 4.59888309 82.2184711 2.46196371 80.1231277 1.2344707 76.4962598 7.67430257 78.5921827 8.90877328 76.1856668 13.1901712 82.4798096 16.9011425 82.4659025 16.9296347 84.5612459 18.1571278 85.7607373 16.0202084"></polygon>
                    <polygon id="Fill-15" fill="#146488" points="28.8834051 82.4320575 26.7944358 81.2047389 27.9939271 79.0605511 30.08985 80.29508"></polygon>
                    <polygon id="Fill-16" fill="#146488" points="27.9939271 79.0605511 25.877723 77.8116017 27.0772144 75.6746242 29.2009516 76.9236317"></polygon>
                    <polygon id="Fill-17" fill="#0D5075" points="29.2009516 76.9236317 27.9939271 79.0605511 30.08985 80.29508 31.2893414 78.1508922"></polygon>
                    <polygon id="Fill-18" fill="#0D5075" points="28.8834051 82.4320575 30.9717949 83.6665864 32.1782399 81.5223985 30.08985 80.29508"></polygon>
                    <polygon id="Fill-19" fill="#0D5075" points="37.2728912 87.3773832 39.3682347 88.6047018 40.567726 86.4677824 38.4793362 85.2332535"></polygon>
                    <polygon id="Fill-20" fill="#0D5075" points="41.774171 84.3308049 40.567726 86.4677824 42.6561159 87.6950428 43.8631403 85.5581234"></polygon>
                    <polygon id="Fill-21" fill="#063249" points="45.9515302 86.7926523 43.8631403 85.5581234 42.6561159 87.6950428 40.567726 86.4677824 39.3682347 88.6047018 43.5455938 91.0665492 44.7520388 88.9295717 46.8404286 90.1568902 48.0468736 88.0199708"></polygon>
                    <path d="M53.8397796,62.8745062 L61.0720753,50.0091467 L58.9552917,48.7822352 L57.7488467,50.9476468 L49.3593605,46.009764 L50.5658055,43.8437709 L48.4490219,42.5947633 L49.6560463,40.4293517 L47.5392627,39.2018587 L48.7526613,37.0358656 L46.6358777,35.808954 L50.3612546,29.3760999 L52.4780382,30.6035929 L54.8839745,26.3297541 L57.0007581,27.5566656 L58.2002495,25.391254 L60.3170331,26.6181655 L61.5165245,24.4527539 L69.9060107,29.3976144 L73.5328786,22.9508049 L71.416095,21.7163342 L76.2494079,13.1326052 L63.6124474,5.7757878 L62.4060024,7.94178092 L60.2892188,6.71428791 L57.9110968,10.9735898 L55.7943132,9.73911909 L53.3883768,14.020517 L51.2715932,12.7860463 L47.6447253,19.2328559 L45.5279417,18.0053629 L35.9459177,35.1734022 L38.0627013,36.4078729 L35.6567649,40.6817117 L37.7735485,41.9161824 L28.0576682,59.0914902 L30.1744518,60.3188087 L27.7824226,64.5999741 L29.8992062,65.8272926 L31.0986976,63.6614158 L33.2154812,64.8887344 L32.0090363,67.0546112 L29.8922527,65.8200824 L27.4863163,70.1011896 L29.6030999,71.3285081 L27.1826769,75.6602036 L35.5721631,80.6055293 L37.9925861,76.2738338 L40.1093697,77.5011524 L42.515306,73.2272555 L44.6320896,74.454574 L47.038026,70.180619 L49.1548096,71.4079376 L52.6263811,64.9753741 L54.7431647,66.209903 L55.9426561,64.0440843 L53.8890341,62.8456069 L53.8397796,62.8745062 Z M34.3303708,62.8095555 L32.2135872,61.5822369 L33.4200322,59.4163601 L31.3032486,58.1890997 L32.5096935,56.0232228 L34.6264771,57.2577517 L33.4269857,59.4236285 L35.5437693,60.6436786 L34.3373244,62.8095555 L34.3303708,62.8095555 Z M52.936974,59.4885792 L50.8201904,58.2612607 L52.0266354,56.095442 L54.143419,57.3299708 L52.936974,59.4957895 L52.936974,59.4885792 Z" id="Fill-22" fill="#00AFB4"></path>
                    <polygon id="Fill-23" fill="#009E9E" points="54.1718127 57.3371811 52.0474961 56.0882317 50.8480047 58.2323614 52.9647883 59.4741587"></polygon>
                    <polygon id="Fill-24" fill="#009E9E" points="79.6995392 46.6598527 83.3055464 40.2415354 81.2165771 39.0140424 84.8434451 32.5672328 82.7266615 31.3182252 85.1325978 27.0368273 83.0372544 25.8099158 85.4646309 21.4994441 83.3687081 20.2649734 84.575153 18.128054 76.1856668 13.1901712 71.3523539 21.7739001 73.4691375 23.0229077 68.6433577 31.6072181 70.7317475 32.8416888 69.5322561 34.9786082 71.620646 36.2130789 69.2147096 40.4869177 71.3030995 41.7213884 67.6762315 48.1681979 65.5878417 46.9337272 64.3883503 49.0706466 62.2930069 47.8437351 49.0279069 71.4295684 46.931984 70.2022498 44.5121405 74.5123145 42.3953569 73.2633069 39.9894205 77.537262 37.8934977 76.3099434 35.4736541 80.620008 50.1358429 89.2544997 52.5556864 84.9444351 54.6794236 86.1934426 57.0853599 81.9122773 59.1743292 83.1468062 62.8006177 76.6998221 64.889587 77.9271407 81.7885085 47.8943234"></polygon>
                    <polygon id="Fill-25" fill="#9E2036" points="78.1616406 54.3410748 64.889587 77.9271407 66.9849304 79.1616696 80.2500304 55.5683934"></polygon>
                    <polygon id="Fill-26" fill="#9E2036" points="61.6011263 78.8367415 59.1743292 83.1468062 61.2627191 84.3741247 64.889587 77.9271407 62.8006177 76.6998221"></polygon>
                    <polygon id="Fill-27" fill="#9E2036" points="55.878915 84.0492548 54.6794236 86.1934426 56.7683929 87.4207031 59.1743292 83.1468062 57.0853599 81.9122773"></polygon>
                    <polygon id="Fill-28" fill="#9E2036" points="51.356195 87.0814126 50.1358429 89.2544997 52.2526265 90.5034491 54.6794236 86.1934426 52.5556864 84.9444351"></polygon>
                    <polygon id="Fill-29" fill="#B72133" points="69.6591588 89.3194504 74.4855182 80.7282786 72.3971283 79.50096 77.2229082 70.9169985 75.1345183 69.6824696 78.7613863 63.2354856 76.6446027 61.9865362 66.9849304 79.1616696 64.889587 77.9271407 61.2627191 84.3741247 59.1743292 83.1468062 56.7683929 87.4207031 54.6794236 86.1934426 52.2526265 90.5034491 50.1358429 89.2544997 48.9363515 91.3914191 51.0525556 92.6404266 49.8461107 94.777346 51.9420336 96.0118749 49.5285642 100.28583 51.624487 101.520359 50.4035555 103.686177 52.4925248 104.920706 51.2924539 107.057684 55.5051604 109.533952 56.7046518 107.397032 58.7930416 108.631561 61.2204182 104.321497 63.308808 105.556026 71.7475487 90.546769"></polygon>
                    <polygon id="Fill-30" fill="#F47721" points="25.4964354 103.296357 27.613219 104.545306 28.8341506 102.379488 26.717367 101.130538"></polygon>
                    <polygon id="Fill-31" fill="#DB232A" points="30.661202 89.1750703 32.7495918 90.4023888 33.9566162 88.2654113 31.8606934 87.0380927"></polygon>
                    <polygon id="Fill-32" fill="#EFC818" points="39.3682347 88.6047018 38.1617897 90.7416793 36.0733998 89.5143607 34.8663754 91.6513382 36.9622983 92.8858671 35.7413667 95.0516858 33.6460233 93.8244253 32.4465319 95.9613447 31.2400869 98.0983222 29.1233033 96.8493728 27.9168584 98.9935606 25.8278891 97.7590318 23.7394992 96.5317132 24.9389906 94.3875254 22.8506008 93.1602068 24.0570457 91.016019 25.2565371 88.8790415 23.1681473 87.6517229 24.3884994 85.478694 25.5879908 83.3417165 26.7944358 81.2047389 24.6706986 79.9557895 23.4712072 82.092767 22.2647622 84.2297446 21.0444101 86.4027735 19.8449187 88.539751 18.6378943 90.6767286 20.7622109 91.925678 19.5551865 94.0626555 18.3556951 96.2068433 20.4446644 97.4341619 19.2237328 99.6071908 21.3121227 100.834509 20.1126313 102.978697 18.9061863 105.115675 21.0021092 106.342993 23.090499 107.577522 24.296944 105.440545 26.4137276 106.689494 27.613219 104.545306 25.4964354 103.296357 26.717367 101.130538 28.8341506 102.379488 30.929494 103.606806 32.1289854 101.469829 33.3354304 99.3328511 35.4238202 100.56017 36.6308446 98.4231921 37.830336 96.2862146 39.0506881 94.1131857 40.2571331 91.9762081 41.4566245 89.8392306"></polygon>
                    <polygon id="Fill-33" fill="#EFC818" points="28.2349844 93.4775757 27.0314367 95.6175188 29.1227239 96.8490821 30.3262715 94.7090809"></polygon>
                    <path d="M38.1617897,90.7416793 L39.3682347,88.5758606 L37.2514511,87.3485421 L35.1346674,86.0995345 L33.0178838,84.8650056 L30.9011002,83.6377452 L28.7843166,82.4032164 L26.667533,81.1758978 L25.4610881,83.3417165 L27.5778717,84.569035 L26.3714267,86.7348537 L24.2546431,85.5003248 L23.0337115,87.6662017 L25.1504951,88.8935202 L23.9510037,91.0593389 L22.8436472,93.1313076 L24.9604308,94.3586261 L23.7609394,96.5245029 L25.877723,97.7518215 L27.9939271,98.9863504 L29.2009516,96.8204735 L27.084168,95.593155 L28.2836594,93.4273363 L30.400443,94.6618652 L29.193998,96.8276838 L31.3102021,98.0766914 L32.5172266,95.9108146 L33.716718,93.7449959 L35.8335016,94.9723145 L37.0538537,92.8064377 L34.8385611,91.6874478 L36.0450061,89.521571 L38.1617897,90.7416793 Z M32.7495918,90.4023888 L30.6333877,89.1750703 L31.8328791,87.0091934 L33.9496627,88.236512 L32.7495918,90.4023888 Z" id="Fill-34" fill="#F47721"></path>
                    <polygon id="Fill-35" fill="#093D5E" points="27.0772144 75.6746242 22.8998552 73.2127768 21.6934103 75.3497543 23.7887537 76.5842831 22.5823087 78.7212607 26.7944358 81.2047389 27.9939271 79.0605511 25.877723 77.8116017"></polygon>
                    <polygon id="Fill-36" fill="#093D5E" points="37.562044 81.8472684 31.2893414 78.1508922 30.08985 80.29508 32.1782399 81.5223985 30.9717949 83.6665864 37.2728912 87.3773832 38.4793362 85.2332535 40.567726 86.4677824 41.774171 84.3308049"></polygon>
                    <polygon id="Fill-37" fill="#093D5E" points="67.1263198 39.2594247 69.5322561 34.9786082 65.3195496 32.5021076 66.5265741 30.3582106 62.3422613 27.8962468 61.1358164 30.0331662 56.9584572 27.5787617 54.5525209 31.8526004 52.4287837 30.6035929 50.0083607 34.9134831 52.1251443 36.1624906 49.719208 40.4363294 53.9035207 42.8982931 52.6970757 45.0421902 56.880809 47.5041539 58.0803004 45.3672345 62.2930069 47.8437351 64.6989432 43.5623372 66.7942866 44.7968079 69.2147096 40.4869177"></polygon>
                    <polygon id="Fill-38" fill="#00AFB4" points="62.3422613 27.8962468 60.2538715 26.6687538 61.4533629 24.5248568 63.5487063 25.7593275"></polygon>
                    <polygon id="Fill-39" fill="#00AFB4" points="62.3422613 27.8962468 60.2538715 26.6687538 61.4533629 24.5248568 63.5487063 25.7593275"></polygon>
                    <polygon id="Fill-40" fill="#00AFB4" points="52.4287837 30.6035929 50.3403938 29.3760999 51.5468388 27.2322028 53.6352287 28.4666735"></polygon>
                    <polygon id="Fill-41" fill="#00AFB4" points="51.4975843 47.1791095 49.4016615 45.952198 50.6081064 43.8077195 52.6970757 45.0421902"></polygon>
                    <polygon id="Fill-42" fill="#00AFB4" points="51.4975843 47.1791095 49.4016615 45.952198 50.6081064 43.8077195 52.6970757 45.0421902"></polygon>
                    <polygon id="Fill-43" fill="#00AFB4" points="48.8019158 37.0504024 46.7135259 35.8229094 47.9199709 33.6790123 50.0083607 34.9134831"></polygon>
                    <polygon id="Fill-44" fill="#00AFB4" points="52.4287837 30.6035929 50.3403938 29.3760999 51.5468388 27.2322028 53.6352287 28.4666735"></polygon>
                    <polygon id="Fill-45" fill="#00AFB4" points="48.8019158 37.0504024 46.7135259 35.8229094 47.9199709 33.6790123 50.0083607 34.9134831"></polygon>
                    <polygon id="Fill-46" fill="#DB232A" points="55.7520123 29.7156811 57.8479351 30.9425926 59.0474265 28.8056732 61.1358164 30.0331662 62.3422613 27.8962468 58.1579486 25.4342831 56.9584572 27.5787617 54.8416736 26.3297541 52.4287837 30.6035929 54.5525209 31.8526004"></polygon>
                    <polygon id="Fill-47" fill="#DB232A" points="65.6370962 26.986239 63.5487063 25.7593275 62.3422613 27.8962468 64.4306512 29.1307175"></polygon>
                    <polygon id="Fill-48" fill="#DB232A" points="52.4287837 30.6035929 50.3403938 29.3760999 47.9199709 33.6790123 50.0083607 34.9134831"></polygon>
                    <polygon id="Fill-49" fill="#DB232A" points="53.5859742 48.4141617 54.7924191 46.2696832 52.6970757 45.0421902 51.4975843 47.1791095"></polygon>
                    <polygon id="Fill-50" fill="#DB232A" points="47.6024244 39.194881 49.719208 40.4363294 48.5197166 42.5808079 52.6970757 45.0421902 53.9035207 42.8982931 51.8151308 41.6708001 53.0146222 39.5338807 50.9256529 38.29941 52.1251443 36.1624906 50.0083607 34.9134831"></polygon>
                    <polygon id="Fill-51" fill="#00AFB4" points="66.5265741 30.3582106 68.6433577 31.6072181 69.8498026 29.4697173 67.7260655 28.2212912"></polygon>
                    <polygon id="Fill-52" fill="#009E9E" points="66.5265741 30.3582106 68.6433577 31.6072181 69.8498026 29.4697173 67.7260655 28.2212912"></polygon>
                    <polygon id="Fill-53" fill="#009E9E" points="69.2147096 40.4869177 71.3030995 41.7213884 72.5095444 39.5774913 70.4211546 38.3499983"></polygon>
                    <polygon id="Fill-54" fill="#00AFB4" points="55.674364 49.6410733 57.7981012 50.8900808 58.9975926 48.7531614 56.880809 47.5041539"></polygon>
                    <polygon id="Fill-55" fill="#009E9E" points="55.674364 49.6410733 57.7981012 50.8900808 58.9975926 48.7531614 56.880809 47.5041539"></polygon>
                    <polygon id="Fill-56" fill="#009E9E" points="65.5878417 46.9337272 67.6762315 48.1681979 68.883256 46.0243009 66.7942866 44.7968079"></polygon>
                    <polygon id="Fill-57" fill="#009E9E" points="65.5878417 46.9337272 67.6762315 48.1681979 68.883256 46.0243009 66.7942866 44.7968079"></polygon>
                    <polygon id="Fill-58" fill="#DB232A" points="66.5265741 30.3582106 65.3195496 32.5021076 67.4363332 33.7441375 68.6433577 31.6072181"></polygon>
                    <polygon id="Fill-59" fill="#DB232A" points="65.6370962 26.986239 64.4306512 29.1307175 66.5265741 30.3582106 67.7260655 28.2212912"></polygon>
                    <polygon id="Fill-60" fill="#DB232A" points="53.5859742 48.4141617 55.674364 49.6410733 56.880809 47.5041539 54.7924191 46.2696832"></polygon>
                    <polygon id="Fill-61" fill="#DB232A" points="67.4363332 33.7441375 66.2368419 35.8880346 68.3258112 37.1155276 69.5322561 34.9786082"></polygon>
                    <polygon id="Fill-62" fill="#DB232A" points="60.2040376 46.6092644 58.0803004 45.3672345 56.880809 47.5041539 61.0935155 49.9806545 63.4994518 45.7068157 61.4041084 44.472345"></polygon>
                    <polygon id="Fill-63" fill="#B72133" points="68.6433577 31.6072181 67.4363332 33.7441375 69.5322561 34.9786082 70.7317475 32.8416888"></polygon>
                    <polygon id="Fill-64" fill="#B72133" points="71.620646 36.2130789 69.5322561 34.9786082 67.1263198 39.2594247 69.2147096 40.4869177"></polygon>
                    <polygon id="Fill-65" fill="#B72133" points="69.2147096 40.4869177 66.7942866 44.7968079 68.883256 46.0243009 71.3030995 41.7213884"></polygon>
                    <polygon id="Fill-66" fill="#B72133" points="63.4994518 45.7068157 62.2930069 47.8437351 64.3883503 49.0706466 66.7942866 44.7968079 64.6989432 43.5623372"></polygon>
                </g>
                <g id="logo/logo-text-white" transform="translate(0.000000, 27.426231)" fill="#FFFFFF">
                    <path d="M17.4652829,14.3182106 C30.2240845,14.3182106 34.0800334,21.2492192 34.0800334,30.5548097 L34.0800334,50.9653751 C34.0800334,53.7218379 33.456294,54.5134811 31.280221,55.4563 C28.4095066,56.7157299 23.6745597,57.5074311 17.3093917,57.5074311 C3.54410832,57.5074311 0,52.9373245 0,44.7256125 C0,35.2832218 5.20273681,32.0517847 17.6212323,32.0517847 C20.647896,32.0517847 23.7525635,32.3684536 25.0709441,32.4475774 L25.0709441,30.2381408 C25.0709441,25.293805 23.1358679,22.4149178 17.3093917,22.4149178 C13.4321373,22.4149178 10.7882161,23.6745215 9.15793678,26.1934391 C8.07345116,27.8487775 7.60560301,28.0862647 5.81943249,27.380933 L2.71476497,26.056697 C1.00654003,25.293805 0.467848144,24.3295386 1.41763168,22.5157788 C4.03320377,17.3770825 9.39183174,14.3182106 17.4652829,14.3182106 Z M16.6147505,39.5078504 C10.7102705,39.5078504 9.15793678,41.400618 9.15793678,44.6320552 C9.15793678,47.8634923 10.3983718,49.9146233 16.4588011,49.9146233 C19.0725104,49.9840667 21.6861615,49.7717948 24.2558044,49.2812855 C24.8724419,49.0437983 25.1063951,48.8854349 25.1063951,48.1801612 L25.1063951,39.9324522 C23.4406648,39.8532705 19.641356,39.5366016 16.6147505,39.5366016 L16.6147505,39.5078504 Z" id="Fill-67"></path>
                    <path d="M58.9097478,14.3182106 C68.1246739,14.3182106 73.5826112,18.7300117 75.5245565,24.6390777 C76.1485869,26.6108531 75.6025603,27.517675 73.8166226,28.1870098 L70.4001728,29.2881342 C68.5356492,30.0797774 67.6851749,29.5256213 66.9831408,27.6328537 C65.7432297,24.3295386 63.1062357,22.3575313 58.520311,22.3575313 C52.9345988,22.3575313 50.0638845,25.1138781 50.0638845,30.0797774 L50.0638845,41.7460961 C50.0638845,46.6328136 52.9345988,49.4684002 58.520311,49.4684002 C63.0282319,49.4684002 65.7432297,47.4172691 66.9831408,44.0275265 C67.6921604,42.1418887 68.5356492,41.8252198 70.4001728,42.4513698 L73.8946264,43.4805582 C75.6805641,44.2002655 76.2970269,45.056657 75.5245565,47.0286643 C72.9585809,53.7218379 67.6071711,57.5074311 58.2152812,57.5074311 C46.4134814,57.5074311 41.0618971,51.3612257 41.0618971,41.3502455 L41.0618971,30.475628 C41.0618971,20.4649376 46.7253802,14.3182106 58.9097478,14.3182106 Z" id="Fill-68"></path>
                    <path d="M95.392822,8.40276832 L95.392822,15.4989804 L104.238685,15.4989804 C106.025205,15.4989804 106.649236,16.0531364 106.649236,17.8593606 L106.649236,21.4578972 C106.649236,23.271657 106.025205,23.904647 104.238685,23.904647 L95.392822,23.904647 L95.392822,39.7381498 C95.392822,47.4604539 97.6397971,48.7991234 104.161264,48.7991234 C106.025205,48.7991234 106.649236,49.3532794 106.649236,51.2460471 L106.649236,54.8445256 C106.649236,56.7373512 106.025205,57.2843195 104.161264,57.3635012 C91.3529239,57.7592939 86.3839656,53.6570318 86.3839656,40.0260095 L86.3839656,23.93363 L81.0319738,23.93363 C79.2460361,23.93363 78.7000096,23.3000604 78.7000096,21.4868802 L78.7000096,17.8883437 C78.7000096,16.0815398 79.2460361,15.5273838 81.0319738,15.5273838 L86.3839656,15.5273838 L86.3839656,8.40276832 C86.3839656,6.58900852 87.0074139,6.04180837 88.7939337,6.04180837 L92.982854,6.04180837 C94.7693738,6.04180837 95.392822,6.58147292 95.392822,8.40276832 Z" id="Fill-69"></path>
                    <path d="M122.165006,4.93349622 L122.165006,5.65343539 C122.165006,9.25197193 121.002516,10.4611451 117.437044,10.4611451 L116.8916,10.4611451 C113.347084,10.4611451 112.156653,9.28037533 112.156653,5.65343539 L112.156653,4.93349622 C112.156653,1.33495967 113.319142,0.205200054 116.8916,0.205200054 L117.437044,0.205200054 C121.002516,0.205200054 122.165006,1.31351221 122.165006,4.93349622 Z M121.70455,17.8883437 L121.70455,53.9089525 C121.70455,55.7225964 121.08052,56.3558762 119.294582,56.3558762 L115.041629,56.3558762 C113.255109,56.3558762 112.709083,55.7225964 112.709083,53.9089525 L112.709083,17.9242827 C112.709083,16.1174788 113.255109,15.5633227 115.041629,15.5633227 L119.294582,15.5633227 C121.08052,15.4989804 121.70455,16.0531364 121.70455,17.8593606 L121.70455,17.8883437 Z" id="Fill-70"></path>
                    <path d="M165.012957,18.2552692 L150.652691,54.1968122 C149.943671,55.9312744 149.178186,56.4063067 147.391666,56.4063067 L144.833258,56.4063067 C143.046738,56.4063067 142.189279,55.9312744 141.572234,54.1968122 L127.289972,18.3341031 C126.43193,16.0531364 126.899953,15.4989804 129.231917,15.4989804 L132.258348,15.4989804 C135.093844,15.4989804 135.901824,15.9737229 136.511301,17.9387742 L143.727234,36.8593206 C144.681908,39.6047118 145.410137,42.4260966 145.903191,45.2942021 L146.29321,45.2942021 C146.449217,44.9775332 147.06568,40.7169077 148.419687,36.9385023 L155.564601,17.9387742 C156.337072,15.9737229 156.982058,15.4989804 159.909529,15.4989804 L163.028517,15.4989804 C165.324972,15.4989804 165.864013,16.0531364 165.012957,18.2552692 Z" id="Fill-71"></path>
                    <path d="M185.03723,14.3182106 C197.79609,14.3182106 201.645053,21.2492192 201.645053,30.5548097 L201.645053,50.9653751 C201.645053,53.7218379 201.028008,54.5134811 198.852052,55.4563 C195.981628,56.7157299 191.246681,57.5074311 184.881222,57.5074311 C171.144404,57.5074311 167.571947,52.9373245 167.571947,44.7399881 C167.571947,35.2832218 172.774917,32.0517847 185.193238,32.0517847 C188.219668,32.0517847 191.324685,32.3684536 192.643182,32.4475774 L192.643182,30.2381408 C192.643182,25.293805 190.672131,22.4149178 184.881222,22.4149178 C180.99675,22.4149178 178.360338,23.6745215 176.729826,26.1934391 C175.64534,27.8487775 175.177899,28.0862647 173.39138,27.380933 L170.286945,26.0351336 C168.578429,25.2506202 168.03997,24.3080912 168.968448,22.4943314 C171.605442,17.3770825 176.963837,14.3182106 185.03723,14.3182106 Z M184.17977,39.5078504 C178.282334,39.5078504 176.729826,41.400618 176.729826,44.6320552 C176.729826,47.8634923 177.970319,49.9146233 184.023763,49.9146233 C186.637472,49.9834291 189.251181,49.7711572 191.82065,49.2812855 C192.437112,49.0437983 192.671124,48.8854349 192.671124,48.1801612 L192.671124,39.9324522 C191.01267,39.8532705 187.206201,39.5366016 184.17977,39.5366016 L184.17977,39.5078504 Z" id="Fill-72"></path>
                    <path d="M222.526786,8.40276832 L222.526786,15.4989804 L231.372649,15.4989804 C233.159169,15.4989804 233.782617,16.0531364 233.782617,17.8593606 L233.782617,21.4578972 C233.782617,23.271657 233.159169,23.904647 231.372649,23.904647 L222.526786,23.904647 L222.526786,39.7381498 C222.526786,47.4604539 224.773761,48.7991234 231.294646,48.7991234 C233.159169,48.7991234 233.782617,49.3532794 233.782617,51.2460471 L233.782617,54.8445256 C233.782617,56.7373512 233.159169,57.2843195 231.294646,57.3635012 C218.486306,57.7592939 213.51793,53.6570318 213.51793,40.0260095 L213.51793,23.93363 L208.165938,23.93363 C206.38,23.93363 205.833973,23.3000604 205.833973,21.4868802 L205.833973,17.8883437 C205.833973,16.0815398 206.38,15.5273838 208.165938,15.5273838 L213.51793,15.5273838 L213.51793,8.40276832 C213.51793,6.58900852 214.141378,6.04180837 215.927898,6.04180837 L220.116818,6.04180837 C221.902756,6.04180837 222.526786,6.58147292 222.526786,8.40276832 Z" id="Fill-73"></path>
                    <path d="M256.443885,14.3182106 C268.784202,14.3182106 274.376608,21.5657142 274.376608,30.6339915 L274.376608,35.4415273 C274.376608,37.4854706 273.597152,38.8313279 270.882154,38.8313279 L247.434446,38.8313279 L247.434446,41.7100991 C247.434446,46.8343039 250.617467,49.6267636 256.287877,49.6267636 C260.866816,49.6267636 263.815243,48.0506069 265.445755,45.4453198 C266.686249,43.7180454 267.572232,43.4805582 269.408232,44.5025009 L272.122648,45.9994758 C273.909167,46.8703008 274.143179,48.2089703 273.051126,49.9434325 C270.258706,54.5926629 265.055737,57.5074311 256.287877,57.5074311 C243.529017,57.5074311 238.432575,50.3104739 238.432575,40.637726 L238.432575,31.3392652 C238.432575,20.385524 244.72003,14.3182106 256.443885,14.3182106 Z M256.443885,22.0410363 C250.617467,22.0410363 247.434446,24.9195757 247.434446,30.0797774 L247.434446,31.8142975 L265.367752,31.8142975 L265.367752,30.0797774 C265.367752,24.9555727 262.341321,22.0410363 256.443885,22.0410363 Z" id="Fill-74"></path>
                    <path d="M128.005394,69.8574021 C130.613865,69.8574021 131.939347,70.8937783 132.534854,72.8153551 C132.619843,73.0744637 132.570363,73.1752088 132.329366,73.2615783 L131.804878,73.4558807 C131.563881,73.5206289 131.464921,73.4558807 131.358393,73.2471447 C130.897938,71.742982 129.940936,71.0160868 128.005394,71.0160868 C125.759001,71.0160868 124.588945,72.1892051 124.588945,74.175588 L124.588945,78.2922257 C124.588945,80.2569872 125.779958,81.4517269 128.005394,81.4517269 C130.01894,81.4517269 130.932865,80.6744013 131.393903,79.1702385 C131.492863,78.9255635 131.59939,78.875191 131.833402,78.9471849 L132.364875,79.1558629 C132.584916,79.2422324 132.655352,79.3429775 132.570363,79.5877105 C131.974856,81.516475 130.663927,82.6104116 128.005394,82.6104116 C125.014473,82.6104116 123.348451,80.9695068 123.348451,78.2922257 L123.348451,74.2331484 C123.33448,71.498307 124.964993,69.8574021 128.005394,69.8574021 Z" id="Fill-75"></path>
                    <path d="M143.947275,69.8574021 C146.973706,69.8574021 148.611203,71.498307 148.611203,74.175588 L148.611203,78.249041 C148.611203,80.9478854 146.973706,82.5672268 143.947275,82.5672268 C140.920262,82.5672268 139.268793,80.926322 139.268793,78.249041 L139.268793,74.2331484 C139.268793,71.498307 140.899306,69.8574021 143.947275,69.8574021 Z M143.947275,71.0160868 C141.7003,71.0160868 140.495316,72.1892051 140.495316,74.1971514 L140.495316,78.2706623 C140.495316,80.2786086 141.7003,81.4517269 143.947275,81.4517269 C146.19425,81.4517269 147.384681,80.2786086 147.384681,78.2706623 L147.384681,74.2331484 C147.384681,72.1892051 146.179697,71.0160868 143.947275,71.0160868 Z" id="Fill-76"></path>
                    <path d="M165.112499,70.4475552 L165.112499,82.0202586 C165.112499,82.2793671 165.02751,82.3657366 164.77196,82.3657366 L164.226516,82.3657366 C164.080986,82.3900824 163.936039,82.3135671 163.872006,82.178622 L158.442592,74.2619575 C157.811576,73.3119508 157.336568,72.1748295 157.081601,71.7933545 L157.010582,71.7933545 C157.010582,72.2755746 157.202099,73.5710594 157.202099,74.8521106 L157.202099,82.0490677 C157.202099,82.3081183 157.11711,82.3944878 156.876113,82.3944878 L156.351625,82.3944878 C156.096075,82.3944878 156.011086,82.3081183 156.011086,82.0490677 L156.011086,70.4475552 C156.011086,70.1884466 156.096075,70.1020771 156.351625,70.1020771 L156.890084,70.1020771 C157.032703,70.0861944 157.172411,70.1530873 157.251579,70.2748161 L162.539538,78.0331172 C163.247975,79.0694934 163.751507,80.1922391 164.055955,80.6384623 L164.106017,80.6384623 C164.106017,80.0843062 163.90053,78.7888214 163.90053,77.4285885 L163.90053,70.4259338 C163.90053,70.1884466 163.985519,70.1020771 164.240486,70.1020771 L164.77196,70.1020771 C165.02751,70.1020771 165.112499,70.1884466 165.112499,70.4475552 Z" id="Fill-77"></path>
                    <path d="M180.422781,70.4475552 L180.422781,70.9297753 C180.422781,71.1888259 180.337792,71.2751954 180.096795,71.2751954 L174.092832,71.2751954 L174.092832,75.7516867 L179.260292,75.7516867 C179.501289,75.7516867 179.586278,75.8164929 179.586278,76.0756014 L179.586278,76.5649514 C179.586278,76.8240599 179.501289,76.9104294 179.260292,76.9104294 L174.092832,76.9104294 L174.092832,82.0202586 C174.092832,82.2793671 174.022395,82.3657366 173.766846,82.3657366 L173.206848,82.3657366 C172.951881,82.3657366 172.866891,82.2793671 172.866891,82.0202586 L172.866891,70.4475552 C172.866891,70.1884466 172.951881,70.1020771 173.206848,70.1020771 L180.096795,70.1020771 C180.337792,70.1020771 180.422781,70.1884466 180.422781,70.4475552 Z" id="Fill-78"></path>
                    <path d="M194.967579,70.4475552 L194.967579,70.9297753 C194.967579,71.1888259 194.88259,71.2751954 194.641593,71.2751954 L188.638211,71.2751954 L188.638211,75.5933813 L193.876108,75.5933813 C194.117105,75.5933813 194.202094,75.6797508 194.202094,75.9388593 L194.202094,76.3922123 C194.202094,76.6513209 194.117105,76.7376904 193.876108,76.7376904 L188.638211,76.7376904 L188.638211,81.1926183 L194.861633,81.1926183 C195.10263,81.1926183 195.187619,81.2789879 195.187619,81.5380384 L195.187619,82.0202586 C195.187619,82.2793671 195.10263,82.3657366 194.861633,82.3657366 L187.773184,82.3657366 C187.518216,82.3657366 187.433227,82.2793671 187.433227,82.0202586 L187.433227,70.4475552 C187.433227,70.1884466 187.518216,70.1020771 187.773184,70.1020771 L194.663131,70.1020771 C194.88259,70.1020771 194.967579,70.1884466 194.967579,70.4475552 Z" id="Fill-79"></path>
                    <path d="M210.986881,73.6789923 C211.131246,75.3633717 209.90647,76.8774467 208.250927,77.0615471 C208.746309,77.3153807 209.138075,77.7385334 209.356951,78.2562288 L211.263387,82.0202586 C211.383885,82.2073732 211.348376,82.3657366 211.093409,82.3657366 L210.51944,82.3657366 C210.108465,82.3657366 209.973414,82.3153641 209.852915,82.0562555 L208.201447,78.7240733 C207.83937,77.7098401 206.824156,77.0814295 205.770523,77.2199105 L203.473485,77.2199105 L203.473485,82.0202586 C203.473485,82.2793671 203.403049,82.3657366 203.147499,82.3657366 L202.587502,82.3657366 C202.332534,82.3657366 202.247545,82.2793671 202.247545,82.0202586 L202.247545,70.4475552 C202.247545,70.1884466 202.332534,70.1020771 202.587502,70.1020771 L207.400453,70.1020771 C209.647428,70.1020771 210.986881,71.4119375 210.986881,73.6789923 Z M207.301493,71.2751954 L203.488038,71.2751954 L203.488038,76.0467922 L207.301493,76.0467922 C207.344569,76.0491689 207.387064,76.0503861 207.430141,76.0503861 C208.721278,76.0503861 209.783643,74.9717526 209.783643,73.6609648 C209.783643,72.350235 208.721278,71.2716015 207.430141,71.2716015 C207.387064,71.2716015 207.344569,71.2728188 207.301493,71.2751954 Z" id="Fill-80"></path>
                    <path d="M225.879203,70.4475552 L225.879203,70.9297753 C225.879203,71.1888259 225.794214,71.2751954 225.553217,71.2751954 L219.549835,71.2751954 L219.549835,75.5933813 L224.787732,75.5933813 C225.021743,75.5933813 225.113718,75.6797508 225.113718,75.9388593 L225.113718,76.3922123 C225.113718,76.6513209 225.021743,76.7376904 224.787732,76.7376904 L219.549835,76.7376904 L219.549835,81.1926183 L225.773257,81.1926183 C226.014254,81.1926183 226.099243,81.2789879 226.099243,81.5380384 L226.099243,82.0202586 C226.099243,82.2793671 226.014254,82.3657366 225.773257,82.3657366 L218.684808,82.3657366 C218.42984,82.3657366 218.344851,82.2793671 218.344851,82.0202586 L218.344851,70.4475552 C218.344851,70.1884466 218.42984,70.1020771 218.684808,70.1020771 L225.574755,70.1020771 C225.794214,70.1020771 225.879203,70.1884466 225.879203,70.4475552 Z" id="Fill-81"></path>
                    <path d="M242.274553,70.4475552 L242.274553,82.0202586 C242.274553,82.2793671 242.189564,82.3657366 241.934014,82.3657366 L241.38857,82.3657366 C241.24304,82.3900824 241.098093,82.3135671 241.03406,82.178622 L235.604646,74.2619575 C234.973631,73.3119508 234.498622,72.1748295 234.243655,71.7933545 L234.179622,71.7933545 C234.179622,72.2755746 234.364153,73.5710594 234.364153,74.8521106 L234.364153,82.0490677 C234.364153,82.3081183 234.279164,82.3944878 234.038167,82.3944878 L233.513679,82.3944878 C233.258129,82.3944878 233.17314,82.3081183 233.17314,82.0490677 L233.17314,70.4475552 C233.17314,70.1884466 233.258129,70.1020771 233.513679,70.1020771 L234.059123,70.1020771 C234.200578,70.0837598 234.339704,70.1515802 234.413633,70.2748161 L239.708577,78.0331172 C240.417597,79.0694934 240.913561,80.1922391 241.218591,80.6384623 L241.268071,80.6384623 C241.268071,80.0843062 241.069569,78.7888214 241.069569,77.4285885 L241.069569,70.4259338 C241.069569,70.1884466 241.154558,70.1020771 241.409526,70.1020771 L241.934014,70.1020771 C242.189564,70.1020771 242.274553,70.1884466 242.274553,70.4475552 Z" id="Fill-82"></path>
                    <path d="M254.338364,69.8574021 C256.939849,69.8574021 258.265331,70.8937783 258.860838,72.8153551 C258.945827,73.0744637 258.896347,73.1752088 258.65535,73.2615783 L258.130862,73.4558807 C257.889865,73.5206289 257.790323,73.4558807 257.684378,73.2471447 C257.230326,71.742982 256.266339,71.0160868 254.338364,71.0160868 C252.091389,71.0160868 250.914929,72.1892051 250.914929,74.175588 L250.914929,78.2922257 C250.914929,80.2569872 252.105942,81.4517269 254.338364,81.4517269 C256.344342,81.4517269 257.25885,80.6744013 257.719887,79.1702385 C257.825832,78.9255635 257.925375,78.875191 258.166371,78.9471849 L258.69086,79.1558629 C258.910318,79.2422324 258.981336,79.3429775 258.896347,79.5877105 C258.300841,81.516475 256.989329,82.6104116 254.338364,82.6104116 C251.340457,82.6104116 249.674436,80.9695068 249.674436,78.2922257 L249.674436,74.2331484 C249.674436,71.498307 251.290395,69.8574021 254.338364,69.8574021 Z" id="Fill-83"></path>
                    <path d="M273.505178,70.4475552 L273.505178,70.9297753 C273.505178,71.1888259 273.420188,71.2751954 273.186177,71.2751954 L267.182213,71.2751954 L267.182213,75.5933813 L272.420692,75.5933813 C272.654703,75.5933813 272.739693,75.6797508 272.739693,75.9388593 L272.739693,76.3922123 C272.739693,76.6513209 272.654703,76.7376904 272.420692,76.7376904 L267.182213,76.7376904 L267.182213,81.1926183 L273.405635,81.1926183 C273.646632,81.1926183 273.731621,81.2789879 273.731621,81.5380384 L273.731621,82.0202586 C273.731621,82.2793671 273.646632,82.3657366 273.405635,82.3657366 L266.317768,82.3657366 C266.062218,82.3657366 265.977229,82.2793671 265.977229,82.0202586 L265.977229,70.4475552 C265.977229,70.1884466 266.062218,70.1020771 266.317768,70.1020771 L273.207133,70.1020771 C273.420188,70.1020771 273.505178,70.1884466 273.505178,70.4475552 Z" id="Fill-84"></path>
                </g>
            </g>
        </g>
    </g>
</svg>