<?xml version="1.0" standalone="no"?>
<!DOCTYPE svg PUBLIC "-//W3C//DTD SVG 20010904//EN"
 "http://www.w3.org/TR/2001/REC-SVG-20010904/DTD/svg10.dtd">
<svg version="1.0" xmlns="http://www.w3.org/2000/svg"
 width="1024.000000pt" height="1024.000000pt" viewBox="0 0 1024.000000 1024.000000"
 preserveAspectRatio="xMidYMid meet">
<metadata>
Created by potrace 1.11, written by Peter Selinger 2001-2013
</metadata>
<g transform="translate(0.000000,1024.000000) scale(0.100000,-0.100000)"
fill="#000000" stroke="none">
<path d="M6867 8820 c-43 -80 -45 -80 -125 -29 -25 16 -51 29 -56 29 -6 0 -29
-31 -50 -70 l-40 -70 -45 27 c-63 37 -102 56 -105 52 -2 -2 -15 -26 -29 -54
-49 -96 -44 -94 -123 -47 -79 48 -72 51 -126 -50 l-31 -58 -27 20 c-16 11 -31
20 -34 20 -4 0 -24 11 -45 24 l-38 24 -74 -131 c-41 -72 -75 -137 -77 -144 -6
-24 -16 -20 -129 48 l-31 20 -71 -129 c-97 -175 -92 -170 -124 -149 -15 9 -46
28 -71 42 l-44 25 -82 -145 c-45 -80 -84 -145 -86 -145 -4 0 -68 35 -111 61
l-32 20 -39 -68 c-22 -37 -70 -122 -107 -188 -37 -66 -76 -135 -87 -153 l-20
-32 -73 40 c-40 22 -75 37 -78 33 -2 -4 -19 -35 -38 -68 -18 -33 -43 -78 -56
-100 -12 -22 -26 -47 -30 -55 -7 -15 -114 -202 -118 -208 -2 -2 -33 16 -71 38
l-67 42 -18 -24 c-10 -12 -26 -39 -37 -58 -10 -19 -49 -89 -87 -155 -37 -66
-76 -137 -87 -157 -18 -37 -49 -51 -63 -28 -6 9 -98 60 -109 60 -2 0 -40 -64
-84 -142 -173 -310 -166 -300 -178 -289 -5 5 -26 19 -47 30 -21 12 -49 28 -61
36 -22 15 -24 14 -55 -42 -17 -32 -43 -78 -57 -103 -14 -25 -55 -97 -91 -160
-36 -63 -67 -117 -70 -120 -2 -2 -14 2 -26 10 -12 8 -45 26 -72 42 l-51 27
-59 -106 c-33 -59 -75 -132 -92 -163 -18 -30 -36 -62 -40 -70 -4 -8 -26 -48
-50 -88 -24 -41 -43 -76 -43 -78 0 -2 -11 -22 -25 -44 l-25 -40 -65 40 c-71
44 -85 48 -85 25 0 -8 -4 -15 -10 -15 -5 0 -10 -4 -10 -9 0 -4 -54 -105 -121
-222 -67 -118 -132 -234 -146 -259 -14 -25 -29 -49 -33 -54 -5 -5 -39 9 -79
32 l-70 41 -30 -52 c-16 -29 -118 -209 -226 -402 -246 -435 -229 -405 -282
-499 -35 -62 -42 -81 -31 -88 7 -4 39 -23 71 -40 31 -18 57 -35 57 -38 0 -3
-38 -71 -84 -152 -46 -82 -79 -148 -72 -148 6 0 31 -14 56 -30 88 -57 84 -47
40 -120 -22 -36 -39 -68 -40 -71 0 -9 260 -161 278 -163 9 -1 32 27 54 64 21
36 42 64 47 63 5 -1 37 -19 71 -39 34 -20 66 -32 70 -28 4 5 20 32 35 61 40
78 42 79 120 33 l68 -39 61 107 c34 59 70 124 81 145 11 20 22 37 25 37 3 0
36 -18 74 -40 37 -22 69 -40 70 -40 1 0 17 30 36 66 19 37 41 69 48 71 6 3 24
-3 40 -13 15 -10 45 -28 67 -40 l40 -22 41 74 40 73 70 -41 c38 -23 70 -42 72
-43 1 -1 -16 -35 -39 -74 -23 -40 -40 -73 -38 -75 2 -1 33 -20 69 -41 36 -22
67 -40 69 -42 2 -1 -15 -34 -38 -74 -32 -56 -39 -74 -29 -81 7 -5 38 -23 68
-40 30 -17 57 -33 59 -34 3 -2 -67 -134 -104 -196 -5 -9 -37 -66 -71 -125 -33
-59 -91 -162 -129 -228 -97 -171 -105 -187 -100 -196 3 -4 34 -24 70 -43 49
-28 63 -40 58 -53 -4 -9 -39 -74 -80 -145 -40 -71 -73 -131 -73 -133 0 -2 32
-23 70 -45 l71 -41 -32 -57 c-18 -31 -54 -96 -80 -143 -27 -48 -49 -90 -49
-95 0 -5 32 -27 70 -48 l70 -39 -32 -56 c-17 -31 -36 -64 -42 -73 -6 -9 -8
-19 -6 -21 3 -2 67 -40 142 -85 l138 -81 19 27 c10 15 28 46 40 69 12 24 26
43 31 43 6 0 27 -11 48 -23 20 -13 51 -31 68 -40 l30 -16 20 37 c10 20 39 73
64 117 25 44 51 92 59 108 8 15 19 27 25 27 6 0 38 -16 70 -36 60 -36 81 -38
94 -7 17 44 138 253 145 253 5 0 36 -16 68 -35 33 -19 64 -35 69 -35 7 0 53
74 125 205 59 106 199 353 230 405 50 84 65 117 57 125 -4 4 27 -14 68 -39 41
-25 77 -46 81 -46 4 0 24 30 45 68 20 37 38 69 40 71 2 2 35 -15 73 -38 38
-22 71 -41 74 -41 2 0 16 24 31 53 52 98 45 96 126 48 l71 -42 -32 -57 c-18
-31 -36 -61 -41 -67 -15 -16 -9 -22 62 -65 39 -23 70 -45 70 -49 0 -4 -6 -15
-13 -26 -7 -11 -25 -41 -40 -66 l-27 -47 70 -42 c39 -23 70 -45 70 -49 0 -3
-21 -42 -46 -86 -25 -44 -61 -108 -80 -142 l-34 -62 70 -42 c38 -23 70 -43 70
-46 0 -2 -18 -36 -41 -75 -22 -38 -39 -71 -37 -72 1 -2 32 -20 68 -41 36 -21
67 -40 69 -41 2 -2 -15 -36 -37 -76 l-40 -72 130 -78 c71 -42 137 -80 147 -83
12 -4 22 4 34 27 22 42 54 98 60 104 3 3 35 -13 71 -36 37 -22 71 -38 75 -35
5 2 16 19 26 37 9 18 22 42 28 53 7 11 31 54 54 95 24 41 47 81 51 88 7 11 24
5 80 -26 79 -45 73 -47 119 38 16 30 90 161 163 290 312 552 372 661 369 664
-2 2 -33 20 -69 41 -36 20 -66 38 -68 40 -2 1 6 18 17 36 76 134 237 421 262
467 17 31 35 61 40 67 16 17 10 24 -56 60 -36 20 -67 40 -69 44 -3 4 38 83 90
177 53 93 108 192 123 219 16 28 46 82 69 120 25 44 37 74 31 81 -5 6 -28 21
-51 33 -92 47 -95 24 41 264 66 118 121 218 121 224 0 5 -31 27 -69 48 l-69
39 20 41 c11 22 27 48 36 58 8 9 12 17 8 17 -4 0 1 12 12 28 25 35 161 277
164 292 2 6 -15 21 -37 33 -22 12 -54 31 -72 41 l-31 19 23 36 c31 49 212 372
220 392 4 12 -12 27 -64 58 l-70 41 18 33 c122 213 191 335 217 386 12 23 10
26 -54 63 -37 22 -69 41 -70 43 -2 2 50 100 117 218 67 118 121 219 121 223 0
5 -31 27 -70 49 l-69 41 80 142 c43 78 79 146 79 150 0 4 -31 25 -69 47 l-69
39 23 41 c12 22 49 87 83 145 33 58 58 108 56 111 -2 3 -33 23 -69 44 -36 21
-65 41 -65 45 0 4 22 45 48 91 27 46 63 109 80 140 l32 57 -70 41 c-38 23 -70
45 -70 49 0 4 10 23 22 42 11 19 29 50 39 67 l19 33 -38 23 c-20 13 -52 32
-69 42 -18 11 -33 22 -33 25 0 3 18 36 40 75 l39 69 -60 38 c-33 21 -64 38
-69 38 -17 0 -11 22 25 86 19 34 35 66 35 71 0 4 -32 26 -70 47 l-69 39 30 51
c39 67 53 95 48 99 -6 5 -281 167 -283 167 0 0 -18 -32 -39 -70z m-912 -1728
c-3 -3 -11 0 -18 7 -9 10 -8 11 6 5 10 -3 15 -9 12 -12z m49 -31 c-2 -3 -12 3
-22 13 -16 17 -16 18 5 5 12 -7 20 -15 17 -18z m86 -42 c17 -13 18 -17 5 -10
-33 17 -51 31 -40 31 6 0 21 -10 35 -21z m70 -45 c0 -2 -9 0 -20 6 -11 6 -20
13 -20 16 0 2 9 0 20 -6 11 -6 20 -13 20 -16z m44 -33 c-2 -3 -12 3 -22 13
-16 17 -16 18 5 5 12 -7 20 -15 17 -18z m126 -67 c0 -2 -9 0 -20 6 -11 6 -20
13 -20 16 0 2 9 0 20 -6 11 -6 20 -13 20 -16z m-1447 -549 c-3 -9 -8 -14 -10
-11 -3 3 -2 9 2 15 9 16 15 13 8 -4z m-902 -578 c-10 -9 -11 -8 -5 6 3 10 9
15 12 12 3 -3 0 -11 -7 -18z m1159 -143 c0 -2 -9 0 -20 6 -11 6 -20 13 -20 16
0 2 9 0 20 -6 11 -6 20 -13 20 -16z m115 -64 c3 -6 -1 -7 -9 -4 -18 7 -21 14
-7 14 6 0 13 -4 16 -10z m106 -67 c13 -16 12 -17 -3 -4 -10 7 -18 15 -18 17 0
8 8 3 21 -13z m-1821 -1480 c0 -7 -39 17 -46 28 -3 6 5 3 20 -6 14 -10 26 -19
26 -22z m-50 -143 c-6 -11 -13 -20 -16 -20 -2 0 0 9 6 20 6 11 13 20 16 20 2
0 0 -9 -6 -20z m1095 -78 c-4 -4 -95 48 -95 55 0 2 22 -8 49 -24 28 -15 48
-29 46 -31z m-1135 8 c-6 -11 -13 -20 -16 -20 -2 0 0 9 6 20 6 11 13 20 16 20
2 0 0 -9 -6 -20z m-34 -58 c-17 -16 -18 -16 -5 5 7 12 15 20 18 17 3 -2 -3
-12 -13 -22z m14 -60 c0 -1 -9 2 -20 8 -11 6 -20 15 -20 20 0 6 9 2 20 -7 11
-10 20 -19 20 -21z m735 -32 c3 -6 -1 -7 -9 -4 -18 7 -21 14 -7 14 6 0 13 -4
16 -10z m110 -60 c3 -6 -1 -7 -9 -4 -18 7 -21 14 -7 14 6 0 13 -4 16 -10z
m-1015 -596 c0 -2 -9 0 -20 6 -11 6 -20 13 -20 16 0 2 9 0 20 -6 11 -6 20 -13
20 -16z m255 -534 c3 -6 -1 -7 -9 -4 -18 7 -21 14 -7 14 6 0 13 -4 16 -10z
m350 -10 c3 -6 -1 -7 -9 -4 -18 7 -21 14 -7 14 6 0 13 -4 16 -10z m75 -46 c0
-2 -9 0 -20 6 -11 6 -20 13 -20 16 0 2 9 0 20 -6 11 -6 20 -13 20 -16z m41
-21 c13 -17 13 -17 -6 -3 -11 8 -22 16 -24 17 -2 2 0 3 6 3 6 0 17 -8 24 -17z"/>
</g>
</svg>
