<?xml version="1.0" encoding="UTF-8"?>
<svg width="16px" height="16px" viewBox="0 0 16 16" version="1.1" xmlns="http://www.w3.org/2000/svg" xmlns:xlink="http://www.w3.org/1999/xlink">
    <!-- Generator: Sketch 51.3 (57544) - http://www.bohemiancoding.com/sketch -->
    <title>shapes/zoom</title>
    <desc>Created with Sketch.</desc>
    <defs></defs>
    <g id="shapes/zoom" stroke="none" stroke-width="1" fill="none" fill-rule="evenodd">
        <path d="M9,7 L13,7 L13,9 L9,9 L9,13 L7,13 L7,9 L3,9 L3,7 L7,7 L7,3 L9,3 L9,7 Z M0,0 L6,0 L6,2 L2,2 L2,6 L0,6 L0,0 Z M0,16 L0,10 L2,10 L2,14 L6,14 L6,16 L0,16 Z M16,16 L10,16 L10,14 L14,14 L14,10 L16,10 L16,16 Z M16,0 L16,6 L14,6 L14,2 L10,2 L10,0 L16,0 Z" id="Combined-Shape" fill="#FFFFFF" fill-rule="nonzero"></path>
    </g>
</svg>